<?xml version="1.0" encoding="UTF-8"?>
<svg version="1.1" xmlns="http://www.w3.org/2000/svg" width="512" height="512">
<path d="M0 0 C168.96 0 337.92 0 512 0 C512 168.96 512 337.92 512 512 C343.04 512 174.08 512 0 512 C0 343.04 0 174.08 0 0 Z " fill="#FEFEFE" transform="translate(0,0)"/>
<path d="M0 0 C15 0 15 0 18.546875 2 C19.76117188 3.485 19.76117188 3.485 21 5 C21.49306641 5.59296875 21.98613281 6.1859375 22.49414062 6.796875 C24.13893744 8.82498451 25.69813193 10.90006742 27.25 13 C28.39693426 14.52619286 29.54407161 16.05223311 30.69140625 17.578125 C31.25230957 18.32900391 31.81321289 19.07988281 32.39111328 19.85351562 C34.62961271 22.83999316 36.90565582 25.79659462 39.1875 28.75 C39.98542969 29.78640625 40.78335938 30.8228125 41.60546875 31.890625 C42.39566406 32.91671875 43.18585938 33.9428125 44 35 C46.08617229 37.71128275 48.17170585 40.42305677 50.25732422 43.13476562 C52.30233987 45.79352478 54.34794817 48.45182177 56.39453125 51.109375 C61.66896038 57.96016824 66.92625547 64.82383909 72.17626953 71.69335938 C77.10385391 78.13947094 82.04943004 84.57152742 87 91 C88.66695292 93.16644651 90.33347413 95.33322497 92 97.5 C92.83332547 98.58333938 93.6666588 99.66667272 94.5 100.75 C99.5 107.25 99.5 107.25 100.75219727 108.87792969 C101.57811183 109.95157014 102.40411958 111.02513891 103.23022461 112.09863281 C105.42786998 114.95465919 107.62346364 117.81223565 109.81640625 120.671875 C110.27595703 121.27064453 110.73550781 121.86941406 111.20898438 122.48632812 C112.09499193 123.64082281 112.98043104 124.79575402 113.86523438 125.95117188 C115.82419028 128.56824852 115.82419028 128.56824852 118 131 C118.33 87.77 118.66 44.54 119 0 C125.6 0 132.2 0 139 0 C139 56.76 139 113.52 139 172 C123 172 123 172 119.0625 169.25 C117.99277049 167.86988265 116.97650295 166.44757975 116 165 C115.32195312 164.11570312 114.64390625 163.23140625 113.9453125 162.3203125 C111.99640519 159.77796628 110.09287399 157.20779956 108.20019531 154.62353516 C106.19224692 151.90733157 104.12746125 149.23546643 102.0625 146.5625 C101.64637451 146.02286621 101.23024902 145.48323242 100.80151367 144.92724609 C99.95662669 143.83167836 99.11149281 142.73630099 98.26611328 141.64111328 C96.17432793 138.92977871 94.08739443 136.21471548 92 133.5 C91.16669027 132.41664851 90.33335693 131.33331518 89.5 130.25 C84.5 123.75 79.5 117.25 74.5 110.75 C74.0877417 110.21407227 73.6754834 109.67814453 73.25073242 109.12597656 C72.41492624 108.03941221 71.57915165 106.95282355 70.7434082 105.86621094 C68.69816364 103.20711452 66.65230009 100.5485006 64.60546875 97.890625 C59.33103962 91.03983176 54.07374453 84.17616091 48.82373047 77.30664062 C43.89614745 70.86053085 38.95091534 64.4282046 34 58 C32.18717558 55.64608291 30.3747474 53.29186134 28.5625 50.9375 C27.75941406 49.89464844 26.95632813 48.85179687 26.12890625 47.77734375 C24.40535842 45.52882539 22.69985961 43.26647948 21 41 C20.67 84.23 20.34 127.46 20 172 C13.4 172 6.8 172 0 172 C0 115.24 0 58.48 0 0 Z " fill="#010101" transform="translate(304,170)"/>
<path d="M0 0 C7.59 0 15.18 0 23 0 C23 25.08 23 50.16 23 76 C37.92164772 74.85218094 41.61228435 73.32962692 51 63 C53.17287181 60.38767097 55.29579929 57.73957847 57.41796875 55.0859375 C60.43988448 51.39772502 63.72334392 47.96094348 67 44.5 C71.80964166 39.41561274 76.34822712 34.22521382 80.71875 28.75390625 C83.89821128 24.91568672 87.28179922 21.28441027 90.68432617 17.64428711 C93.50324634 14.62820154 96.25729197 11.57900745 98.9375 8.4375 C101.88851279 5.02584131 104.9253398 2.0373301 109 0 C110.7404417 -0.08449628 112.48409722 -0.10723024 114.2265625 -0.09765625 C115.2578125 -0.09443359 116.2890625 -0.09121094 117.3515625 -0.08789062 C118.43179688 -0.07951172 119.51203125 -0.07113281 120.625 -0.0625 C122.25695312 -0.05573242 122.25695312 -0.05573242 123.921875 -0.04882812 C126.61463789 -0.03701776 129.30729188 -0.02054778 132 0 C130.11479084 4.07867771 127.38235447 7.02283715 124.3125 10.25 C123.21798673 11.41725351 122.12423255 12.58521929 121.03125 13.75390625 C120.5053125 14.31480957 119.979375 14.87571289 119.4375 15.45361328 C117.13378503 17.9318284 114.92067669 20.48461939 112.70703125 23.04296875 C110.66366569 25.3855915 108.58319141 27.69273422 106.5 30 C101.70092208 35.32334693 96.9592205 40.68863339 92.3203125 46.15234375 C86.72868388 52.72953389 81.05121736 59.19289082 75.16503906 65.50854492 C71.85710375 69.05880572 68.64164028 72.67315144 65.46875 76.34375 C63.40793955 78.66764263 61.22934248 80.83821335 59 83 C59.72703125 83.22816406 60.4540625 83.45632812 61.203125 83.69140625 C64.58220751 85.27240156 66.29253472 87.1387201 68.75 89.9375 C69.1826416 90.42694092 69.6152832 90.91638184 70.06103516 91.4206543 C73.67648685 95.54232202 77.14195917 99.78535932 80.5859375 104.05078125 C83.33861873 107.4136847 86.16181769 110.70929569 89 114 C93.29995131 118.98921019 97.50486032 124.04221923 101.65625 129.15625 C104.39302049 132.47686486 107.1910295 135.74046782 110 139 C114.28831462 143.97616458 118.484731 149.01338815 122.62109375 154.1171875 C126.0749215 158.30261423 129.62630608 162.4032523 133.19140625 166.49414062 C137 170.89286804 137 170.89286804 137 172 C133.00076688 172.20491566 129.00289669 172.32816782 125 172.4375 C123.87464844 172.49615234 122.74929687 172.55480469 121.58984375 172.61523438 C115.81558029 172.73342105 111.94999521 172.64323757 107.46484375 168.76953125 C106.27973804 167.54142393 105.12095514 166.28692761 104 165 C103.19691406 164.18015625 102.39382812 163.3603125 101.56640625 162.515625 C97.82667713 158.28747122 94.17383422 154.01517995 90.625 149.625 C86.94363311 145.07139288 83.07225527 140.76417484 79.08642578 136.48095703 C75.30523247 132.39357285 71.80317332 128.11965827 68.3125 123.78125 C65.36398114 120.2350584 62.24630845 116.86956654 59.09912109 113.50024414 C55.18162438 109.27753269 51.59200351 104.83679542 48.0703125 100.27734375 C41.16277998 92.67905798 33.14781623 93.72484402 23 93 C23 119.07 23 145.14 23 172 C15.41 172 7.82 172 0 172 C0 115.24 0 58.48 0 0 Z " fill="#010101" transform="translate(69,170)"/>
<path d="M0 0 C7.92 0 15.84 0 24 0 C24 56.76 24 113.52 24 172 C16.08 172 8.16 172 0 172 C0 115.24 0 58.48 0 0 Z " fill="#080808" transform="translate(234,170)"/>
<path d="M0 0 C0.33 0 0.66 0 1 0 C1 13.53 1 27.06 1 41 C-12.53 41 -26.06 41 -40 41 C-36.77794772 39.38897386 -33.66489916 38.09649079 -30.3125 36.8125 C-16.32964928 30.99481758 -7.86955879 20.70813891 -2 7 C-1.17794005 4.65968578 -0.55034658 2.42152494 0 0 Z " fill="#000000" transform="translate(511,471)"/>
<path d="M0 0 C1.61102614 3.22205228 2.90350921 6.33510084 4.1875 9.6875 C10.00518242 23.67035072 20.29186109 32.13044121 34 38 C36.34031422 38.82205995 38.57847506 39.44965342 41 40 C41 40.33 41 40.66 41 41 C27.47 41 13.94 41 0 41 C0 27.47 0 13.94 0 0 Z " fill="#000000" transform="translate(0,471)"/>
<path d="M0 0 C13.53 0 27.06 0 41 0 C41 13.53 41 27.06 41 41 C39.38897386 37.77794772 38.09649079 34.66489916 36.8125 31.3125 C30.99481758 17.32964928 20.70813891 8.86955879 7 3 C4.65968578 2.17794005 2.42152494 1.55034658 0 1 C0 0.67 0 0.34 0 0 Z " fill="#000000" transform="translate(471,0)"/>
<path d="M0 0 C13.53 0 27.06 0 41 0 C37.77794772 1.61102614 34.66489916 2.90350921 31.3125 4.1875 C17.32964928 10.00518242 8.86955879 20.29186109 3 34 C2.17794005 36.34031422 1.55034658 38.57847506 1 41 C0.67 41 0.34 41 0 41 C0 27.47 0 13.94 0 0 Z " fill="#000000" transform="translate(0,0)"/>
</svg>
